# AST/ASF file generated using VICON BodyLanguage
# -----------------------------------------------
:version 1.10
:name VICON
:units
  mass 1.0
  length 0.45
  angle deg
:documentation
   .ast/.asf automatically generated from VICON data using
   VICON BodyBuilder and BodyLanguage model FoxedUp or BRILLIANT.MOD
:root
   order TX TY TZ RX RY RZ
   axis XYZ
   position 0 0 0  
   orientation 0 0 0 
:bonedata
  begin
     id 1 
     name lhipjoint
     direction 0.577973 -0.728611 0.367523 
     length 2.48544 
     axis 0 0 0  XYZ
  end
  begin
     id 2 
     name lfemur
     direction 0.34202 -0.939693 0  
     length 7.1921  
     axis 0 0 20  XYZ
    dof rx ry rz
    limits (-160.0 20.0)
           (-70.0 70.0)
           (-60.0 70.0)
  end
  begin
     id 3 
     name ltibia
     direction 0.34202 -0.939693 0   
     length 7.71059   
     axis 0 0 20   XYZ
    dof rx
    limits (-10.0 170.0)
  end
  begin
     id 4 
     name lfoot
     direction 0.089538 -0.246004 0.965124   
     length 2.19909   
     axis -90 7.62852e-016 20   XYZ
    dof rx rz
    limits (-45.0 90.0)
           (-70.0 20.0)
  end
  begin
     id 5 
     name ltoes
     direction 1.53544e-011 -4.21829e-011 1   
     length 1.10116   
     axis -90 7.62852e-016 20   XYZ
    dof rx
    limits (-90.0 20.0)
  end
  begin
     id 6 
     name rhipjoint
     direction -0.554414 -0.743062 0.374812   
     length 2.4371  
     axis 0 0 0  XYZ 
  end
  begin
     id 7 
     name rfemur
     direction -0.34202 -0.939693 0   
     length 7.47254   
     axis 0 0 -20   XYZ
    dof rx ry rz
    limits (-160.0 20.0)
           (-70.0 70.0)
           (-70.0 60.0)
  end
  begin
     id 8 
     name rtibia
     direction -0.34202 -0.939693 0   
     length 7.65855   
     axis 0 0 -20   XYZ
    dof rx
    limits (-10.0 170.0)
 end
 begin
     id 9 
     name rfoot
     direction -0.133779 -0.367555 0.92033   
     length 2.43006  
     axis -90 -7.62852e-016 -20   XYZ
    dof rx rz
    limits (-45.0 90.0)
           (-20.0 70.0)
  end
  begin
     id 10 
     name rtoes
     direction -1.53563e-011 -4.21889e-011 1   
     length 1.19625   
     axis -90 -7.62852e-016 -20   XYZ
    dof rx
    limits (-90.0 20.0)
  end
  begin
     id 11 
     name lowerback
     direction 0.0249066 0.998043 -0.0573585   
     length 2.08485   
     axis 0 0 0   XYZ
    dof rx ry rz
    limits (-20.0 45.0)
           (-30.0 30.0)
           (-30.0 30.0)
  end
  begin
     id 12 
     name upperback
     direction 0.0237884 0.999673 0.00943178   
     length 2.08515   
     axis 0 0 0   XYZ
    dof rx ry rz
    limits (-20.0 45.0)
           (-30.0 30.0)
           (-30.0 30.0)
  end
  begin
     id 13 
     name thorax
     direction 0.0106671 0.999301 0.0358174   
     length 2.09037   
     axis 0 0 0   XYZ
    dof rx ry rz
    limits (-20.0 45.0)
           (-30.0 30.0)
           (-30.0 30.0)
  end
  begin
     id 14 
     name lowerneck
     direction -0.0580016 0.987052 0.149546   
     length 1.84454   
     axis 0 0 0   XYZ
    dof rx ry rz
    limits (-20.0 45.0)
           (-30.0 30.0)
           (-30.0 30.0)
  end
  begin
     id 15 
     name upperneck
     direction 0.079456 0.981963 -0.171567   
     length 1.88141   
     axis 0 0 0   XYZ
    dof rx ry rz
    limits (-20.0 45.0)
           (-30.0 30.0)
           (-30.0 30.0)
  end
  begin
     id 16
     name head
     direction 0.0262167 0.9967 -0.0768276  
     length 1.89541  
     axis 0 0 0   XYZ
    dof rx ry rz
    limits (-20.0 45.0)
           (-30.0 30.0)
           (-30.0 30.0)
  end
  begin
     id 17 
     name lclavicle
     direction 0.946135 0.322134 -0.0325326  
     length 3.949  
     axis 0 0 0   XYZ
    dof ry rz
    limits (-20.0 10.0)
           (0.0 20.0)
  end
  begin
     id 18 
     name lhumerus
     direction 1 -4.48964e-011 1.94005e-028   
     length 5.10995   
     axis 180 -30 -90   XYZ
    dof rx ry rz
    limits (-60.0 90.0)
           (-90.0 90.0)
           (-90.0 90.0)
  end
  begin
     id 19
     name lradius
     direction 1 -4.48976e-011 2.87852e-027   
     length 3.21207   
     axis 180 -30 -90   XYZ
    dof rx
    limits (-10.0 170.0)
  end
  begin
     id 20
     name lwrist
     direction 1 -4.48963e-011 1.9975e-027   
     length 1.60604   
     axis 2.96054e-016 90 90   XYZ
    dof ry
    limits (-180.0 0.0)
 end
  begin
     id 21 
     name lhand
     direction 1 -4.48919e-011 4.00227e-027   
     length 0.63349   
     axis -2.5488e-015 90 90   XYZ
    dof rx rz
    limits (-90.0 90.0)
           (-45.0 45.0)
  end
  begin
     id 22 
     name lfingers
     direction 1 -4.49037e-011 7.9652e-027   
     length 0.510736   
     axis -5.0975e-015 90 90   XYZ
    dof rx
    limits (0.0 90.0)
  end
  begin
     id 23
     name lthumb
     direction 0.707107 -6.34922e-011 0.707107   
     length 0.733318   
     axis -90 45 -4.48553e-014   XYZ
    dof rx rz
    limits (-45.0 45.0)
           (-45.0 45.0)
  end
  begin
     id 24 
     name rclavicle
     direction -0.940085 0.328911 -0.0897654   
     length 3.93848  
     axis 0 0 0   XYZ 
    dof ry rz
    limits (-10.0 20.0)
           (-20.0 0.0)
  end
  begin
     id 25 
     name rhumerus
     direction -1 -4.48958e-011 3.02044e-027  
     length 5.25109   
     axis 180 30 90   XYZ
    dof rx ry rz
    limits (-90.0 60.0)
           (-90.0 90.0)
           (-90.0 90.0)
  end
  begin
     id 26 
     name rradius
     direction -1 -4.4897e-011 9.78352e-028   
     length 3.28364   
     axis 180 30 90   XYZ
    dof rx
    limits (-10.0 170.0)
  end
  begin
     id 27 
     name rwrist
     direction -1 -4.48943e-011 1.99918e-027   
     length 1.64182   
     axis 2.96054e-016 -90 -90   XYZ
    dof ry
    limits (-180.0 0.0)
  end
  begin
     id 28
     name rhand
     direction -1 -4.49024e-011 3.98478e-027   
     length 0.599745   
     axis -2.5488e-015 -90 -90   XYZ
    dof rx rz
    limits (-90.0 90.0)
           (-45.0 45.0)
  end
  begin
     id 29
     name rfingers
     direction -1 -4.48914e-011 8.00621e-027   
     length 0.48353   
     axis -5.0975e-015 -90 -90   XYZ
    dof rx
    limits (0.0 90.0)
  end
  begin
     id 30
     name rthumb
     direction -0.707107 -6.34992e-011 0.707107   
     length 0.694255   
     axis -90 -45 4.48553e-014   XYZ
    dof rx rz
    limits (-45.0 45.0)
           (-45.0 45.0)
  end
:hierarchy
  begin
    root lhipjoint rhipjoint lowerback
    lhipjoint lfemur
    lfemur ltibia
    ltibia lfoot
    lfoot ltoes
    rhipjoint rfemur
    rfemur rtibia
    rtibia rfoot
    rfoot rtoes
    lowerback upperback
    upperback thorax
    thorax lowerneck lclavicle rclavicle
    lowerneck upperneck
    upperneck head
    lclavicle lhumerus
    lhumerus lradius
    lradius lwrist
    lwrist lhand lthumb
    lhand lfingers
    rclavicle rhumerus
    rhumerus rradius
    rradius rwrist
    rwrist rhand rthumb
    rhand rfingers
  end

#!OML:ASF E:\CV Data\Top Level 1\Subject 1\Session 1\player.ASF
:FULLY-SPECIFIED
:DEGREES
816
root 7.75981 17.2238 -10.0514 50.3637 -83.2471 -46.4059
lowerback 9.47575 1.61122 4.1481
upperback 1.16483 2.57813 1.42483
thorax -3.98068 1.19908 -1.17398
lowerneck -14.9542 13.0904 -2.76064
upperneck 16.8627 18.1229 1.83059
head 7.17849 8.64114 2.83168
rclavicle 2.52581e-014 -1.49089e-015
rhumerus 140.981 138.393 76.8189
rradius 94.3197
rwrist 5.30123
rhand -34.0084 25.5846
rfingers 7.12502
rthumb -7.1877 -4.27331
lclavicle 2.52581e-014 -1.49089e-015
lhumerus -40.9534 -36.137 112.966
lradius 94.5332
lwrist 37.6392
lhand -26.628 13.697
lfingers 7.12502
lthumb -0.060809 43.6767
rfemur -26.8202 4.11407 29.8914
rtibia 39.2656
rfoot -14.7551 -2.32292
rtoes 15.0204
lfemur -19.3057 13.8997 -12.8455
ltibia 60.1157
lfoot -17.4658 -0.367354
ltoes -11.4525
817
root 7.8105 17.2339 -10.0611 46.6946 -82.9621 -42.5934
lowerback 9.3723 1.53643 4.12644
upperback 1.15937 2.47216 1.42593
thorax -3.93485 1.14839 -1.14449
lowerneck -14.9676 13.0442 -2.77482
upperneck 16.8188 18.0714 1.78286
head 7.17141 8.61256 2.8136
rclavicle -1.26477e-014 1.93815e-014
rhumerus 140.826 138.352 76.7745
rradius 94.4901
rwrist 4.82618
rhand -33.778 25.662
rfingers 7.12502
rthumb -6.96527 -4.20342
lclavicle -1.26477e-014 1.93815e-014
lhumerus -41.0876 -36.0811 113.006
lradius 94.6004
lwrist 37.6779
lhand -26.2803 13.4882
lfingers 7.12502
lthumb 0.275047 43.4678
rfemur -27.1074 3.87616 29.7144
rtibia 39.131
rfoot -14.5392 -2.52235
rtoes 15.0429
lfemur -18.5575 13.8909 -13.049
ltibia 60.0067
lfoot -16.9834 -0.884838
ltoes -11.456
818
root 7.86265 17.2432 -10.0705 43.1486 -82.6449 -38.8932
lowerback 9.26352 1.46054 4.08821
upperback 1.14906 2.36315 1.42548
thorax -3.89175 1.09639 -1.10717
lowerneck -14.9819 12.995 -2.78637
upperneck 16.7732 18.016 1.73151
head 7.16467 8.58195 2.79376
rclavicle 2.73577e-014 2.0773e-014
rhumerus 140.677 138.331 76.7379
rradius 94.6703
rwrist 4.44826
rhand -33.483 25.7186
rfingers 7.12502
rthumb -6.68052 -4.15606
lclavicle 2.73577e-014 2.0773e-014
lhumerus -41.2236 -36.0451 113.057
lradius 94.675
lwrist 37.7056
lhand -25.9683 13.2992
lfingers 7.12502
lthumb 0.576391 43.2781
rfemur -27.4221 3.63641 29.5143
rtibia 39.0202
rfoot -14.3234 -2.74076
rtoes 15.0088
lfemur -17.7844 13.8588 -13.2737
ltibia 59.7847
lfoot -16.5019 -1.30241
ltoes -11.4903
819
root 7.9165 17.2513 -10.0796 39.7846 -82.2941 -35.3613
lowerback 9.14772 1.38188 4.03387
upperback 1.13404 2.24896 1.42732
thorax -3.85043 1.04201 -1.05802
lowerneck -14.9997 12.9455 -2.79454
upperneck 16.7287 17.9609 1.67241
head 7.15997 8.55083 2.77159
rclavicle -2.87492e-014 1.70955e-014
rhumerus 140.539 138.322 76.7169
rradius 94.8431
rwrist 4.28372
rhand -33.1883 25.7349
rfingers 7.12502
rthumb -6.39601 -4.14856
lclavicle -2.87492e-014 1.70955e-014
lhumerus -41.3599 -36.0229 113.112
lradius 94.7554
lwrist 37.7225
lhand -25.717 13.1229
lfingers 7.12502
lthumb 0.819065 43.1011
rfemur -27.7686 3.39833 29.2961
rtibia 38.9338
rfoot -14.1115 -2.97933
rtoes 14.9587
lfemur -16.9939 13.8135 -13.5127
ltibia 59.4523
lfoot -16.0626 -1.62762
ltoes -11.6208
820
root 7.97191 17.2586 -10.0882 36.6523 -81.912 -32.0518
lowerback 9.02919 1.30301 3.97831
upperback 1.11512 2.1345 1.42719
thorax -3.81138 0.987421 -1.01047
lowerneck -15.0184 12.8935 -2.80152
upperneck 16.6824 17.9033 1.60836
head 7.15547 8.51808 2.74753
rclavicle 4.28629e-014 -9.34288e-015
rhumerus 140.419 138.335 76.7129
rradius 94.9913
rwrist 4.39188
rhand -32.9339 25.7054
rfingers 7.12502
rthumb -6.15043 -4.18536
lclavicle 4.28629e-014 -9.34288e-015
lhumerus -41.4935 -36.0251 113.161
lradius 94.843
lwrist 37.7372
lhand -25.4627 12.9622
lfingers 7.12502
lthumb 1.06464 42.9393
rfemur -28.14 3.16237 29.0614
rtibia 38.8678
rfoot -13.9041 -3.22857
rtoes 14.9201
lfemur -16.1827 13.7551 -13.7627
ltibia 59.0101
lfoot -15.689 -1.88301
ltoes -11.7818
821
root 8.02919 17.2651 -10.0961 33.7788 -81.4945 -28.9916
lowerback 8.91143 1.22064 3.92355
upperback 1.09182 2.01599 1.43123
thorax -3.77737 0.930659 -0.958971
lowerneck -15.0394 12.8413 -2.81314
upperneck 16.6341 17.8472 1.53973
head 7.15069 8.4854 2.72291
rclavicle -2.56432e-014 -4.96962e-015
rhumerus 140.311 138.353 76.7331
rradius 95.1151
rwrist 4.74179
rhand -32.742 25.6388
rfingers 7.12502
rthumb -5.96511 -4.25722
lclavicle -2.56432e-014 -4.96962e-015
lhumerus -41.6115 -36.0211 113.21
lradius 94.9226
lwrist 37.737
lhand -25.3359 12.8071
lfingers 7.12502
lthumb 1.1871 42.7835
rfemur -28.5351 2.92279 28.8191
rtibia 38.8172
rfoot -13.6966 -3.48663
rtoes 14.8737
lfemur -15.3581 13.6721 -14.0169
ltibia 58.4615
lfoot -15.3918 -2.08832
ltoes -11.9764
822
root 8.08817 17.2709 -10.1032 31.2427 -81.0472 -26.269
lowerback 8.80133 1.1356 3.88867
upperback 1.0672 1.89629 1.43558
thorax -3.74813 0.872832 -0.91864
lowerneck -15.0604 12.7894 -2.82058
upperneck 16.5807 17.7914 1.46597
head 7.14506 8.45279 2.69597
rclavicle -9.14409e-015 2.78299e-015
rhumerus 140.219 138.37 76.7641
rradius 95.2161
rwrist 5.24173
rhand -32.5897 25.5537
rfingers 7.12502
rthumb -5.81805 -4.34639
lclavicle -9.14409e-015 2.78299e-015
lhumerus -41.723 -36.016 113.26
lradius 94.9923
lwrist 37.7258
lhand -25.1296 12.646
lfingers 7.12502
lthumb 1.3864 42.6212
rfemur -28.9403 2.68571 28.5806
rtibia 38.7771
rfoot -13.4894 -3.74834
rtoes 14.845
lfemur -14.5097 13.567 -14.2652
ltibia 57.808
lfoot -15.1655 -2.24501
ltoes -12.2245
823
root 8.14895 17.2759 -10.1096 29.0061 -80.5757 -23.8446
lowerback 8.6982 1.049 3.86703
upperback 1.0407 1.77625 1.44175
thorax -3.72419 0.814473 -0.884271
lowerneck -15.0792 12.7365 -2.82455
upperneck 16.5191 17.7341 1.38673
head 7.13728 8.41946 2.66622
rclavicle -3.13086e-015 -1.11319e-014
rhumerus 140.138 138.377 76.7998
rradius 95.3011
rwrist 5.76274
rhand -32.4503 25.484
rfingers 7.12502
rthumb -5.68353 -4.41979
lclavicle -3.13086e-015 -1.11319e-014
lhumerus -41.8138 -36.0132 113.291
lradius 95.0557
lwrist 37.722
lhand -24.9275 12.4835
lfingers 7.12502
lthumb 1.58159 42.4573
rfemur -29.3567 2.45416 28.3436
rtibia 38.7458
rfoot -13.2792 -4.01713
rtoes 14.8114
lfemur -13.6458 13.4428 -14.5077
ltibia 57.055
lfoot -14.9903 -2.37371
ltoes -12.4593
824
root 8.21188 17.28 -10.1159 27.0344 -80.0838 -21.6836
lowerback 8.61001 0.961397 3.84414
upperback 1.00882 1.65596 1.45513
thorax -3.71431 0.755689 -0.842333
lowerneck -15.0959 12.6842 -2.82447
upperneck 16.4547 17.6774 1.30172
head 7.12912 8.38625 2.63399
rclavicle -3.62782e-014 -6.75868e-015
rhumerus 140.057 138.364 76.833
rradius 95.3813
rwrist 6.20129
rhand -32.2716 25.4459
rfingers 7.12502
rthumb -5.51095 -4.46242
lclavicle -3.62782e-014 -6.75868e-015
lhumerus -41.8922 -36.0003 113.316
lradius 95.1178
lwrist 37.7316
lhand -24.7226 12.2743
lfingers 7.12502
lthumb 1.77949 42.2466
rfemur -29.785 2.23406 28.1085
rtibia 38.7235
rfoot -13.0655 -4.29812
rtoes 14.7845
lfemur -12.7708 13.2988 -14.7456
ltibia 56.2065
lfoot -14.8328 -2.46812
ltoes -12.6682
825
root 8.27691 17.283 -10.1221 25.3051 -79.5748 -19.7657
lowerback 8.53497 0.871549 3.82077
upperback 0.974174 1.53363 1.47613
thorax -3.71476 0.695669 -0.792476
lowerneck -15.1097 12.6337 -2.81649
upperneck 16.3862 17.6232 1.20707
head 7.12068 8.35389 2.59767
rclavicle 2.72335e-014 -3.37934e-015
rhumerus 139.98 138.324 76.8561
rradius 95.4569
rwrist 6.50035
rhand -32.0362 25.4485
rfingers 7.12502
rthumb -5.28365 -4.46563
lclavicle 2.72335e-014 -3.37934e-015
lhumerus -41.9518 -35.9536 113.338
lradius 95.17
lwrist 37.7369
lhand -24.5755 12.0678
lfingers 7.12502
lthumb 1.92159 42.0389
rfemur -30.2245 2.02086 27.8767
rtibia 38.7131
rfoot -12.8498 -4.5885
rtoes 14.7595
lfemur -11.8885 13.1417 -14.9742
ltibia 55.2696
lfoot -14.6711 -2.5348
ltoes -12.8441
826
root 8.3441 17.2849 -10.1284 23.7596 -79.0525 -18.0291
lowerback 8.47151 0.783687 3.79225
upperback 0.935575 1.4143 1.49989
thorax -3.72565 0.637005 -0.737612
lowerneck -15.1197 12.5822 -2.80041
upperneck 16.3132 17.5662 1.10692
head 7.11144 8.32037 2.55793
rclavicle -6.32135e-014 -2.28602e-014
rhumerus 139.908 138.274 76.8721
rradius 95.5265
rwrist 6.67625
rhand -31.7589 25.4876
rfingers 7.12502
rthumb -5.01596 -4.433
lclavicle -6.32135e-014 -2.28602e-014
lhumerus -42.0027 -35.9078 113.347
lradius 95.2258
lwrist 37.7461
lhand -24.3942 11.909
lfingers 7.12502
lthumb 2.09661 41.8784
rfemur -30.6795 1.81549 27.6417
rtibia 38.717
rfoot -12.6328 -4.8904
rtoes 14.7402
lfemur -11.0061 12.9692 -15.202
ltibia 54.2472
lfoot -14.4857 -2.56285
ltoes -12.9445
